<?xml version="1.0" encoding="UTF-8" standalone="no"?>
<!DOCTYPE svg PUBLIC "-//W3C//DTD SVG 1.1//EN" "http://www.w3.org/Graphics/SVG/1.1/DTD/svg11.dtd">
<svg width="100%" height="100%" viewBox="0 0 1200 1200" version="1.1" xmlns="http://www.w3.org/2000/svg" xmlns:xlink="http://www.w3.org/1999/xlink" xml:space="preserve" xmlns:serif="http://www.serif.com/" style="fill-rule:evenodd;clip-rule:evenodd;stroke-linejoin:round;stroke-miterlimit:2;">
    <g id="icon">
        <g id="background-circle" transform="matrix(1.05456,0,0,1.05456,-74.5789,-80.4727)">
            <circle cx="639.678" cy="645.267" r="554.733" style="fill:rgb(176,176,176);"/>
        </g>
        <g id="logo" transform="matrix(1.40721,1.40721,-1.40721,1.40721,940.883,-650.962)">
            <path d="M389.566,442.144C381.344,442.047 374.758,435.304 374.855,427.082C374.953,418.861 381.696,412.275 389.918,412.372C398.139,412.469 404.724,419.213 404.628,427.434C404.531,435.655 397.787,442.241 389.566,442.144ZM388.765,509.889C380.544,509.792 373.958,503.048 374.054,494.827C374.152,486.605 380.895,480.019 389.117,480.116C397.339,480.214 403.924,486.957 403.827,495.178C403.73,503.4 396.986,509.986 388.765,509.889ZM387.964,577.633C379.743,577.536 373.157,570.792 373.255,562.571C373.351,554.349 380.094,547.764 388.316,547.861C396.538,547.958 403.124,554.701 403.026,562.923C402.929,571.144 396.185,577.73 387.964,577.633ZM261.764,440.634C253.543,440.537 246.957,433.793 247.053,425.572C247.151,417.351 253.894,410.765 262.116,410.862C270.337,410.959 276.923,417.702 276.826,425.924C276.728,434.145 269.985,440.731 261.764,440.634ZM260.963,508.379C252.742,508.281 246.156,501.537 246.253,493.316C246.35,485.095 253.093,478.509 261.315,478.606C269.537,478.703 276.123,485.447 276.025,493.668C275.928,501.89 269.184,508.476 260.963,508.379ZM260.163,576.123C251.941,576.026 245.355,569.282 245.453,561.061C245.549,552.839 252.293,546.253 260.514,546.35C268.736,546.447 275.322,553.191 275.224,561.412C275.128,569.634 268.383,576.22 260.163,576.123ZM450.114,443.24L453.52,443.28C457.959,443.332 461.634,439.743 461.687,435.304L461.884,418.568C461.937,414.128 458.347,410.453 453.908,410.401L450.502,410.361C446.062,410.308 442.386,413.897 442.335,418.337L442.303,420.928L425.817,420.734L426.467,365.653C426.557,358.107 419.385,352.542 412.116,354.569C405.435,356.431 398.748,358.775 392.084,359.231C390.355,359.349 388.631,359.001 387.037,358.324C373.708,352.673 353.255,340.361 327.798,340.416C305.127,340.464 286.459,351.41 273.661,356.681C271.67,357.502 269.482,357.716 267.363,357.332L239.111,352.205C232.198,350.95 225.816,356.214 225.733,363.24L225.084,418.245L209.419,418.06L209.449,415.468C209.502,411.029 205.912,407.354 201.472,407.301L198.066,407.261C193.627,407.208 189.952,410.798 189.899,415.237L189.701,431.973C189.649,436.413 193.238,440.088 197.677,440.14L201.084,440.181C205.524,440.233 209.199,436.644 209.252,432.204L209.26,431.39L224.925,431.575L224.268,487.226L208.603,487.041L208.633,484.449C208.686,480.009 205.096,476.334 200.657,476.281L197.251,476.241C192.811,476.189 189.136,479.779 189.084,484.218L188.885,500.954C188.834,505.393 192.422,509.069 196.862,509.121L200.269,509.161C204.709,509.214 208.383,505.624 208.436,501.185L208.446,500.37L224.11,500.555L223.453,556.207L207.788,556.022L207.819,553.429C207.871,548.99 204.282,545.315 199.842,545.262L196.435,545.222C191.996,545.17 188.321,548.759 188.268,553.198L188.071,569.935C188.018,574.374 191.607,578.049 196.047,578.102L199.454,578.142C203.893,578.195 207.568,574.605 207.621,570.166L207.63,569.351L223.296,569.536L222.567,631.148C222.494,637.396 227.538,642.5 233.786,642.5C259.259,642.5 279.825,663.31 279.523,688.781L278.919,739.95L279.004,828.486C279.005,829.365 279.717,830.077 280.596,830.077L289.175,830.077C290.056,830.077 290.769,829.364 290.769,828.484L290.769,740.09L315.373,740.38L315.373,857.991C315.373,858.871 316.086,859.585 316.965,859.585L325.544,859.585C326.423,859.585 327.136,858.871 327.136,857.991L327.136,740.52L352.614,740.821L352.614,828.484C352.614,829.364 353.328,830.077 354.208,830.077L362.786,830.077C363.666,830.077 364.379,829.364 364.379,828.484L364.395,740.96L364.987,690.885C365.29,665.237 386.168,644.604 411.818,644.604L411.953,644.604C418.17,644.604 423.23,639.603 423.303,633.387L424.029,572.025L440.516,572.219L440.506,573.034C440.454,577.474 444.044,581.149 448.483,581.201L451.889,581.241C456.329,581.294 460.004,577.704 460.056,573.265L460.254,556.529C460.306,552.09 456.717,548.414 452.278,548.362L448.871,548.321C444.431,548.269 440.756,551.859 440.704,556.298L440.673,558.89L424.186,558.695L424.844,503.044L441.331,503.239L441.321,504.053C441.269,508.493 444.859,512.169 449.298,512.221L452.705,512.261C457.144,512.313 460.819,508.724 460.872,504.284L461.069,487.549C461.122,483.109 457.532,479.434 453.092,479.382L449.686,479.341C445.247,479.288 441.572,482.878 441.519,487.318L441.489,489.909L425.002,489.715L425.659,434.063L442.146,434.258L442.136,435.073C442.085,439.512 445.673,443.188 450.114,443.24Z" style="fill:rgb(18,18,18);fill-rule:nonzero;"/>
        </g>
    </g>
</svg>
