<?xml version="1.0" encoding="UTF-8" standalone="no"?>
<!DOCTYPE svg PUBLIC "-//W3C//DTD SVG 1.1//EN" "http://www.w3.org/Graphics/SVG/1.1/DTD/svg11.dtd">
<svg width="100%" height="100%" viewBox="0 0 350 1000" version="1.1" xmlns="http://www.w3.org/2000/svg" xmlns:xlink="http://www.w3.org/1999/xlink" xml:space="preserve" xmlns:serif="http://www.serif.com/" style="fill-rule:evenodd;clip-rule:evenodd;stroke-linecap:round;stroke-linejoin:round;stroke-miterlimit:1.5;">
    <g id="strat" transform="matrix(6.61894e-17,-1.08095,1.08095,6.61894e-17,-273.048,1056.49)">
        <path id="body" d="M381,441C381,441 363.779,453.248 367,471C370.221,488.752 377.347,504.028 413,508C426.784,509.535 425.285,523.609 425,525C424.33,528.273 420.135,545.754 385,546C349.865,546.246 318.985,522.763 293,523C250.017,523.391 209.039,565.885 150,566C98.952,566.1 60.461,537.953 55,476C54.045,401.418 55,371 55,371C55,371 58.69,272.223 130,263C228.732,262.048 264.703,307.212 298,307C365.295,306.572 362.703,282.453 430,282C478.282,281.675 486,306.944 486,310C486,313.056 485.361,322.445 476,324C466.639,325.555 431.686,322.148 415,353C407.229,367.368 410.526,385.916 427,389C431.07,389.762 429.357,411.746 428,439C427.938,440.254 381,441 381,441Z" style="fill:rgb(26,26,26);stroke:black;stroke-width:0.93px;"/>
        <path id="neck" d="M366,441L804,434L804,395L366,388C366,388 356.82,384.157 357,414.493C357.18,444.828 366,441 366,441Z" style="fill:rgb(157,107,65);stroke:black;stroke-width:0.93px;"/>
        <path id="head" d="M804,435L804,395C804,395 808.287,394.049 811,392C813.713,389.951 818.715,379.908 826,380C833.285,380.092 964,422 964,422C964,422 975.993,427.717 975,446C974.117,462.259 954.36,467.146 950,467C933.648,466.452 930.158,456.059 923,447C922.19,445.975 849,459 849,459C849,459 837.771,436.285 804,435Z" style="fill:rgb(26,26,26);stroke:black;stroke-width:0.93px;"/>
    </g>
</svg>
