<svg class="img-fluid" width="100%" height="100%" viewBox="0 0 1000 400">
    <defs>
        <pattern id="birch-{{pick.0.item.name}}" patternUnits="userSpaceOnUse" height="500" width="500">
            <image x="0" y="0" height="500" width="500" href="{% static 'images/wood/birch.jpg' %}"></image>
        </pattern>
        <pattern id="ebony-{{pick.0.item.name}}" patternUnits="userSpaceOnUse" height="500" width="500">
            <image x="0" y="0" height="500" width="500" href="{% static 'images/wood/ebony.jpg' %}"></image>
        </pattern>
        <pattern id="koa-{{pick.0.item.name}}" patternUnits="userSpaceOnUse" height="500" width="500">
            <image x="0" y="0" height="500" width="500" href="{% static 'images/wood/koa.jpg' %}"></image>
        </pattern>
        <pattern id="lacewood-{{pick.0.item.name}}" patternUnits="userSpaceOnUse" height="500" width="500">
            <image x="0" y="0" height="500" width="500" href="{% static 'images/wood/lacewood.jpg' %}"></image>
        </pattern>
        <pattern id="mahagony-{{pick.0.item.name}}" patternUnits="userSpaceOnUse" height="500" width="500">
            <image x="0" y="0" height="500" width="500" href="{% static 'images/wood/mahagony.jpg' %}"></image>
        </pattern>
        <pattern id="maple-{{pick.0.item.name}}" patternUnits="userSpaceOnUse" height="500" width="500">
            <image x="0" y="0" height="500" width="500" href="{% static 'images/wood/maple.jpg' %}"></image>
        </pattern>
        <pattern id="rosewood-{{pick.0.item.name}}" patternUnits="userSpaceOnUse" height="500" width="500">
            <image x="0" y="0" height="500" width="500" href="{% static 'images/wood/rosewood.jpg' %}"></image>
        </pattern>
        <pattern id="spalted-maple-{{pick.0.item.name}}" patternUnits="userSpaceOnUse" height="500" width="500">
            <image x="0" y="0" height="500" width="500" href="{% static 'images/wood/spalted-map.jpg' %}"></image>
        </pattern>
    </defs>

    <g transform="matrix(1,0,0,1,-6.01541,-420)">
        <g id="Tele" transform="matrix(1.002,0,0,2.23464,4.0114,-391.173)">
            <rect x="2" y="363" width="998" height="179" style="fill:none;" />
            <g id="teleBodyPath" transform="matrix(0.998,0,0,0.4475,5.84954,209.949)">
                <path
                    d="M361,572C361,572 349.893,572.563 340,587C330.107,601.437 359.165,632.551 395,639C406.353,641.043 407.991,657.531 408,658C408.259,671.467 397.286,679.613 391,681C384.714,682.387 371.176,683.916 361,684C321.829,684.322 294.86,659.432 266,658C224.19,655.925 173.171,703.645 110,705C46.829,706.355 3.236,659.907 3,571C2.764,482.093 -2.028,398.162 85,379C114.288,379.109 124,379 124,379C163.204,380.188 224.197,425.153 262,426C286.56,426.551 326.647,399.907 363,401C399.353,402.093 414.268,421.251 414,440C413.304,488.748 393.1,488.058 394,505C394.37,511.961 407.845,513.537 412,515C412.402,515.142 412,570 412,570C412,570 367.499,571.416 361,572Z"
                    fill="url(#{{}}-{{pick.0.item.name}})" />
            </g>
            <g id="teleNeckPath" transform="matrix(0.998,0,0,0.4475,5.84954,209.949)">
                <path d="M338,513L812,520L812,564L337,571C331.878,571 332.815,512.878 338,513Z"
                    fill="url(#{{}}-{{pick.0.item.name}})" />
            </g>
            <g id="teleHeadPath" transform="matrix(0.998,0,0,0.4475,5.84954,209.949)">
                <path
                    d="M812,520L831,504L983,550C983,550 997.403,562.556 983,579C975.176,587.933 957.611,583.162 955,580C952.389,576.838 945.434,572.408 938,572C930.566,571.592 921.823,582.158 905,582C869.179,581.664 873.322,564.802 837,564C800.678,563.198 812,564 812,564L812,520Z"
                    fill="url(#{{}}-{{pick.0.item.name}})" />
            </g>

            <g id="singleCoilBridge" transform="matrix(0.780991,0.060405,-0.163125,0.424051,66.7028,365.178)">
                <path
                    d="M206,145.542C206,143.035 203.536,141 200.5,141L189.5,141C186.464,141 184,143.035 184,145.542L184,208.458C184,210.965 186.464,213 189.5,213L200.5,213C203.536,213 206,210.965 206,208.458L206,145.542Z"
                    style="fill:rgb(166,166,166);" />
            </g>
            <g id="singleCoilMiddle" transform="matrix(0.792524,-1.24206e-17,-1.108e-16,0.430313,93.4647,375.848)">
                <path
                    d="M206,145.542C206,143.035 203.536,141 200.5,141L189.5,141C186.464,141 184,143.035 184,145.542L184,208.458C184,210.965 186.464,213 189.5,213L200.5,213C203.536,213 206,210.965 206,208.458L206,145.542Z"
                    style="fill:rgb(166,166,166);" />
            </g>
            <g id="singleCoilNeck" transform="matrix(0.792524,-1.24206e-17,-1.108e-16,0.430313,153.345,375.848)">
                <path
                    d="M206,145.542C206,143.035 203.536,141 200.5,141L189.5,141C186.464,141 184,143.035 184,145.542L184,208.458C184,210.965 186.464,213 189.5,213L200.5,213C203.536,213 206,210.965 206,208.458L206,145.542Z"
                    style="fill:rgb(166,166,166);" />
            </g>
            <g id="humbuckerBridge" transform="matrix(0.954609,0,0,0.39092,11.3725,382.999)">
                <path
                    d="M216,144.592C216,137.642 210.847,132 204.5,132L181.5,132C175.153,132 170,137.642 170,144.592L170,206.408C170,213.358 175.153,219 181.5,219L204.5,219C210.847,219 216,213.358 216,206.408L216,144.592Z"
                    style="fill:rgb(166,166,166);" />
            </g>
            <g id="humbuckerNeck" transform="matrix(0.954609,0,0,0.39092,121.153,382.999)">
                <path
                    d="M216,144.592C216,137.642 210.847,132 204.5,132L181.5,132C175.153,132 170,137.642 170,144.592L170,206.408C170,213.358 175.153,219 181.5,219L204.5,219C210.847,219 216,213.358 216,206.408L216,144.592Z"
                    style="fill:rgb(166,166,166);" />
            </g>
        </g>
    </g>
</svg>